<?xml version="1.0" encoding="UTF-8" standalone="no"?>
<!-- Created with Inkscape (http://www.inkscape.org/) -->

<svg
   width="274.39999"
   height="274.39999"
   viewBox="0 0 274.39999 274.39999"
   version="1.1"
   id="svg1"
   xml:space="preserve"
   sodipodi:docname="splash.svg"
   inkscape:version="1.4.2 (f4327f4, 2025-05-13)"
   inkscape:export-filename="C:\CODIGO_FONTE\NiceGUI Hello World\src\nicegui_hello_world\assets\splash_light.png"
   inkscape:export-xdpi="139.94"
   inkscape:export-ydpi="139.94"
   xmlns:inkscape="http://www.inkscape.org/namespaces/inkscape"
   xmlns:sodipodi="http://sodipodi.sourceforge.net/DTD/sodipodi-0.dtd"
   xmlns:xlink="http://www.w3.org/1999/xlink"
   xmlns="http://www.w3.org/2000/svg"
   xmlns:svg="http://www.w3.org/2000/svg"><sodipodi:namedview
     id="namedview1"
     pagecolor="#ffffff"
     bordercolor="#000000"
     borderopacity="0.25"
     inkscape:showpageshadow="2"
     inkscape:pageopacity="0.0"
     inkscape:pagecheckerboard="0"
     inkscape:deskcolor="#d1d1d1"
     inkscape:zoom="1.0464286"
     inkscape:cx="175.83617"
     inkscape:cy="77.406141"
     inkscape:window-width="1440"
     inkscape:window-height="830"
     inkscape:window-x="-6"
     inkscape:window-y="-6"
     inkscape:window-maximized="1"
     inkscape:current-layer="svg1" /><defs
     id="defs1"><linearGradient
       id="linearGradient20"><stop
         style="stop-color:#cc5dff;stop-opacity:1;"
         offset="0"
         id="stop21" /><stop
         style="stop-color:#9854ff;stop-opacity:1;"
         offset="0.65333581"
         id="stop1" /><stop
         style="stop-color:#4639ff;stop-opacity:1;"
         offset="1"
         id="stop22" /></linearGradient><linearGradient
       id="linearGradient18"><stop
         style="stop-color:#00041c;stop-opacity:0.25322998;"
         offset="0"
         id="stop18" /><stop
         style="stop-color:#002b69;stop-opacity:0.29036003;"
         offset="0.25285745"
         id="stop20" /><stop
         style="stop-color:#1662ff;stop-opacity:0.13695091;"
         offset="0.99989998"
         id="stop19" /></linearGradient><linearGradient
       id="linearGradient10"><stop
         style="stop-color:#54dcff;stop-opacity:1;"
         offset="0.0185233"
         id="stop10" /><stop
         style="stop-color:#4dafff;stop-opacity:1;"
         offset="0.45407298"
         id="stop12" /><stop
         style="stop-color:#3851ff;stop-opacity:1;"
         offset="1"
         id="stop11" /></linearGradient><linearGradient
       xlink:href="#linearGradient10"
       id="linearGradient11"
       x1="53.324902"
       y1="26.531784"
       x2="195.42247"
       y2="229.46814"
       gradientUnits="userSpaceOnUse"
       gradientTransform="matrix(0.98042206,0,0,0.98042208,2.5059592,2.5059898)" /><linearGradient
       xlink:href="#linearGradient18"
       id="linearGradient19"
       x1="51.526932"
       y1="135.89233"
       x2="67.021484"
       y2="228.27582"
       gradientUnits="userSpaceOnUse"
       gradientTransform="matrix(0.98042206,0,0,0.98042208,14.505955,14.322682)" /><linearGradient
       xlink:href="#linearGradient20"
       id="linearGradient22"
       x1="255.30014"
       y1="36.670959"
       x2="178.40675"
       y2="155.0764"
       gradientUnits="userSpaceOnUse"
       gradientTransform="matrix(0.98042206,0,0,0.98042208,2.5059592,2.5059898)" /><filter
       style="color-interpolation-filters:sRGB"
       id="filter43"
       x="-0.35862769"
       y="-0.1152852"
       width="1.8397375"
       height="1.2699438"><feFlood
         result="flood"
         in="SourceGraphic"
         flood-opacity="0.41566265060240964"
         flood-color="rgb(78,0,227)"
         id="feFlood42" /><feGaussianBlur
         result="blur"
         in="SourceGraphic"
         stdDeviation="6.100000"
         id="feGaussianBlur42" /><feOffset
         result="offset"
         in="blur"
         dx="5.000000"
         dy="5.000000"
         id="feOffset42" /><feComposite
         result="comp1"
         operator="out"
         in="flood"
         in2="offset"
         id="feComposite42" /><feComposite
         result="comp2"
         operator="atop"
         in="comp1"
         in2="SourceGraphic"
         id="feComposite43" /></filter><filter
       style="color-interpolation-filters:sRGB"
       id="filter45"
       x="-0.12054872"
       y="-0.11712002"
       width="1.2822685"
       height="1.27424"><feFlood
         result="flood"
         in="SourceGraphic"
         flood-opacity="0.247059"
         flood-color="rgb(78,0,227)"
         id="feFlood43" /><feGaussianBlur
         result="blur"
         in="SourceGraphic"
         stdDeviation="6.100000"
         id="feGaussianBlur43" /><feOffset
         result="offset"
         in="blur"
         dx="5.000000"
         dy="5.000000"
         id="feOffset43" /><feComposite
         result="comp1"
         operator="out"
         in="flood"
         in2="offset"
         id="feComposite44" /><feComposite
         result="fbSourceGraphic"
         operator="atop"
         in="comp1"
         in2="SourceGraphic"
         id="feComposite45" /><feColorMatrix
         result="fbSourceGraphicAlpha"
         in="fbSourceGraphic"
         values="0 0 0 -1 0 0 0 0 -1 0 0 0 0 -1 0 0 0 0 1 0"
         id="feColorMatrix51" /><feFlood
         id="feFlood51"
         result="flood"
         in="fbSourceGraphic"
         flood-opacity="0.462745"
         flood-color="rgb(0,0,0)" /><feGaussianBlur
         id="feGaussianBlur51"
         result="blur"
         in="fbSourceGraphic"
         stdDeviation="6.100000" /><feOffset
         id="feOffset51"
         result="offset"
         in="blur"
         dx="5.000000"
         dy="5.000000" /><feComposite
         id="feComposite51"
         result="comp1"
         operator="in"
         in="flood"
         in2="offset" /><feComposite
         id="feComposite52"
         result="comp2"
         operator="over"
         in="fbSourceGraphic"
         in2="comp1" /></filter><linearGradient
       xlink:href="#linearGradient20"
       id="linearGradient1"
       gradientUnits="userSpaceOnUse"
       gradientTransform="matrix(0.98042206,0,0,0.98042208,2.5059592,2.5059898)"
       x1="255.30014"
       y1="36.670959"
       x2="178.40675"
       y2="155.0764" /><linearGradient
       xlink:href="#linearGradient10"
       id="linearGradient2"
       gradientUnits="userSpaceOnUse"
       gradientTransform="matrix(0.98042206,0,0,0.98042208,2.5059592,2.5059898)"
       x1="53.324902"
       y1="26.531784"
       x2="195.42247"
       y2="229.46814" /><linearGradient
       xlink:href="#linearGradient18"
       id="linearGradient3"
       gradientUnits="userSpaceOnUse"
       gradientTransform="matrix(0.98042206,0,0,0.98042208,2.5059592,2.5059898)"
       x1="51.526932"
       y1="135.89233"
       x2="67.021484"
       y2="228.27582" /><linearGradient
       xlink:href="#linearGradient18"
       id="linearGradient4"
       gradientUnits="userSpaceOnUse"
       gradientTransform="matrix(0.98042206,0,0,0.98042208,2.5059592,2.5059898)"
       x1="51.526932"
       y1="135.89233"
       x2="67.021484"
       y2="228.27582" /></defs><rect
     style="fill:#ff00ff"
     id="rect4"
     width="274.39999"
     height="274.39999"
     x="0"
     y="0" /><rect
     style="fill:#ffffff"
     id="rect2"
     width="274.39999"
     height="274.39999"
     x="0"
     y="0"
     rx="20"
     ry="20" /><g
     id="layer1"
     style="display:inline;opacity:0.839;filter:url(#filter106)"
     transform="translate(9.132845,8.964926)"><rect
       style="opacity:1;fill:url(#linearGradient1);stroke:none;stroke-width:0.988019;stroke-opacity:1"
       id="rect3"
       width="79.406593"
       height="250"
       x="173.59341"
       y="3"
       rx="39.703297" /><path
       id="path8"
       style="display:inline;opacity:1;fill:url(#linearGradient2);fill-rule:nonzero;stroke:none;stroke-width:0.988019;stroke-opacity:1"
       d="m 42.703264,3.0000306 c -0.192771,0 -0.384278,0.00112 -0.576382,0.00383 -4.96325,0.012301 -9.763913,0.9332643 -14.152928,2.7976459 C 27.021483,6.2061043 26.093279,6.6653873 25.182049,7.1591648 12.050219,13.620971 3,27.026291 3,42.703295 V 213.29673 c 0,21.99562 17.707637,39.70326 39.703264,39.70326 21.995627,0 39.703265,-17.70764 39.703265,-39.70326 v -75.7242 l 91.692441,97.99433 c 18.16442,19.41309 45.3926,23.17292 61.0485,8.42934 l 0.20489,-0.19341 c 15.65591,-14.74359 13.63572,-42.24244 -4.52871,-61.65552 L 79.509304,20.43316 C 72.333592,12.764174 63.744426,7.5377516 55.012156,4.9302366 51.139982,3.6768717 47.003506,3.0000306 42.703264,3.0000306 Z" /><path
       id="rect8"
       style="display:inline;opacity:1;fill:url(#linearGradient3);stroke:none;stroke-width:0.942597;stroke-opacity:1;filter:url(#filter105)"
       d="m 62.285203,126.0106 c -11.223633,0 -20.562361,8.88443 -20.562361,20.10807 v 106.86984 c 0.325825,0.008 0.652647,0.0115 0.980422,0.0115 20.76042,0 37.7014,-15.77417 39.538584,-36.04008 l 0.302859,-70.68981 c 0.006,-1.40294 -0.05496,-6.63835 -0.06715,-7.4885 -0.01819,-1.26949 -0.411895,-1.55623 -1.386223,-2.53199 -1.726706,-1.72925 -0.06197,-0.49551 -4.44949,-4.31809 -3.36855,-2.9348 -3.908833,-2.93263 -6.888073,-4.10654 -3.06412,-1.20737 -7.468573,-1.81438 -7.468573,-1.81438 z" /></g><g
     id="g7"
     style="display:inline;opacity:0.705;mix-blend-mode:normal;filter:url(#filter106)"
     transform="translate(9.132845,8.964926)"><rect
       style="opacity:1;fill:url(#linearGradient22);stroke:none;stroke-width:0.988019;stroke-opacity:1;filter:url(#filter43)"
       id="rect6"
       width="79.406593"
       height="250"
       x="173.59341"
       y="3"
       rx="39.703297" /><path
       id="path6"
       style="display:inline;opacity:1;fill:url(#linearGradient11);fill-rule:nonzero;stroke:none;stroke-width:0.988019;stroke-opacity:1;filter:url(#filter45)"
       d="m 42.703264,3.0000306 c -0.192771,0 -0.384278,0.00112 -0.576382,0.00383 -4.96325,0.012301 -9.763913,0.9332643 -14.152928,2.7976459 C 27.021483,6.2061043 26.093279,6.6653873 25.182049,7.1591648 12.050219,13.620971 3,27.026291 3,42.703295 V 213.29673 c 0,21.99562 17.707637,39.70326 39.703264,39.70326 21.995627,0 39.703265,-17.70764 39.703265,-39.70326 v -75.7242 l 91.692441,97.99433 c 18.16442,19.41309 45.3926,23.17292 61.0485,8.42934 l 0.20489,-0.19341 c 15.65591,-14.74359 13.63572,-42.24244 -4.52871,-61.65552 L 79.509304,20.43316 C 72.333592,12.764174 63.744426,7.5377516 55.012156,4.9302366 51.139982,3.6768717 47.003506,3.0000306 42.703264,3.0000306 Z" /><path
       id="path53"
       style="display:inline;opacity:1;fill:url(#linearGradient4);stroke:none;stroke-width:0.942597;stroke-opacity:1;filter:url(#filter43)"
       d="m 62.285203,126.0106 c -11.223633,0 -20.562361,8.88443 -20.562361,20.10807 v 106.86984 c 0.325825,0.008 0.652647,0.0115 0.980422,0.0115 20.76042,0 37.7014,-15.77417 39.538584,-36.04008 l 0.302859,-70.68981 c 0.006,-1.40294 -0.05496,-6.63835 -0.06715,-7.4885 -0.01819,-1.26949 -0.411895,-1.55623 -1.386223,-2.53199 -1.726706,-1.72925 -0.06197,-0.49551 -4.44949,-4.31809 -3.36855,-2.9348 -3.908833,-2.93263 -6.888073,-4.10654 -3.06412,-1.20737 -7.468573,-1.81438 -7.468573,-1.81438 z" /></g><path
     id="rect1"
     style="display:inline;fill:#ff00ff;stroke-width:0.98"
     d="m -39.180886,-537.06483 v 274.4 H 235.21911 v -274.4 z m 51.850039,11.97246 c 4.298522,0 8.432969,0.67651 12.303594,1.92937 8.728777,2.60648 17.315674,7.83034 24.488516,15.49625 l 94.045547,100.50934 v -78.24687 c 0,-21.98683 17.70125,-39.68809 39.68808,-39.68809 21.98683,0 39.68618,17.70126 39.68618,39.68809 v 170.52382 c 0,21.98683 -17.69935,39.68809 -39.68618,39.68809 -0.34506,0 -0.68878,-0.005 -1.03168,-0.0134 -12.99943,0.28346 -27.21067,-5.73473 -38.15109,-17.41222 l -92.968827,-99.23228 c -0.265881,25.81145 0.404116,53.30808 1.269399,78.98029 -0.516927,5.70219 -1.421142,11.02765 -4.116623,15.74243 -0.01207,0.0242 -0.02041,0.0505 -0.03254,0.0747 -0.107462,0.2144 -0.221455,0.42351 -0.338789,0.63164 -0.186967,0.33162 -0.3819,0.65932 -0.568477,0.99148 -0.287294,0.51149 -0.55042,1.03807 -0.859413,1.53507 -0.514221,0.82706 -1.07795,1.61754 -1.649923,2.40215 -0.135285,0.18561 -0.252055,0.38536 -0.390468,0.56848 -0.0014,0.002 -0.0024,0.004 -0.0038,0.006 -0.722082,0.95499 -1.487166,1.87572 -2.291132,2.76008 l -0.002,0.002 v 0.002 l -0.002,0.002 c -0.804135,0.88423 -1.647944,1.72993 -2.528477,2.53804 -0.002,0.002 -0.0037,0.004 -0.0058,0.006 -0.880377,0.80765 -1.797362,1.57653 -2.748594,2.30262 -0.0019,9.8e-4 -0.0039,0.002 -0.0058,0.004 -0.951683,0.72617 -1.938216,1.41089 -2.955312,2.04996 l -0.002,0.002 h -0.002 c -1.017918,0.63943 -2.066875,1.23336 -3.144806,1.78007 -0.0013,6.4e-4 -0.0025,9.8e-4 -0.0038,0.002 -0.106354,0.0539 -0.220395,0.0944 -0.327304,0.14738 -2.062706,1.02249 -4.220248,1.8843 -6.469532,2.53995 -1.182753,0.3448 -2.387403,0.63551 -3.61375,0.87091 -2.452649,0.47072 -4.9876,0.71777 -7.581601,0.71777 -0.327596,0 -0.654351,-0.004 -0.98,-0.0115 -21.5302303,-0.51728 -38.707842,-18.01798 -38.707842,-39.67721 v -170.52432 c 0,-15.67074 9.047837,-29.07152 22.1744137,-35.53075 0.910866,-0.49358 1.838613,-0.95263 2.790704,-1.35707 4.387259,-1.86363 9.18557,-2.78415 14.1468353,-2.79644 0.192028,-0.003 0.383439,-0.004 0.576133,-0.004 z"
     sodipodi:nodetypes="cccccccccssssscscccssssscccccccccccccsccscscssccccc" /></svg>
